<?xml version="1.0" encoding="UTF-8" standalone="no"?>
<svg
   width="18.025053"
   height="14.00002"
   viewBox="0 0 18.025053 14.00002"
   fill="none"
   version="1.1"
   id="svg4"
   sodipodi:docname="twitter.svg"
   inkscape:version="1.1 (c68e22c387, 2021-05-23)"
   xmlns:inkscape="http://www.inkscape.org/namespaces/inkscape"
   xmlns:sodipodi="http://sodipodi.sourceforge.net/DTD/sodipodi-0.dtd"
   xmlns="http://www.w3.org/2000/svg"
   xmlns:svg="http://www.w3.org/2000/svg">
  <defs
     id="defs8" />
  <sodipodi:namedview
     id="namedview6"
     pagecolor="#ffffff"
     bordercolor="#666666"
     borderopacity="1.0"
     inkscape:pageshadow="2"
     inkscape:pageopacity="0.0"
     inkscape:pagecheckerboard="0"
     showgrid="false"
     fit-margin-top="0"
     fit-margin-left="0"
     fit-margin-right="0"
     fit-margin-bottom="0"
     inkscape:zoom="35.333333"
     inkscape:cx="9.1415094"
     inkscape:cy="6.7216981"
     inkscape:window-width="1920"
     inkscape:window-height="1049"
     inkscape:window-x="0"
     inkscape:window-y="0"
     inkscape:window-maximized="1"
     inkscape:current-layer="svg4" />
  <path
     opacity="0.3"
     d="m 18.025053,1.6574103 c -0.675,0.28564 -1.3909,0.47316 -2.124,0.55635 0.7624,-0.43787 1.3489,-1.12985 1.6249,-1.95557998 -0.7259,0.41168 -1.5201,0.70173 -2.3482,0.85759998 -0.6989,-0.71338998 -1.6764,-1.11747098 -2.6989,-1.1157749826391 -2.0414,0 -3.69829,1.5820049826391 -3.69829,3.5335249826391 0,0.27729 0.03266,0.54755 0.0966,0.80562 -3.07382,-0.14761 -5.79805,-1.55387 -7.62234,-3.69222998 -0.31853,0.52128998 -0.50023,1.12896998 -0.50023,1.77675998 0,1.22547 0.6526,2.30729 1.64467,2.94112 -0.58737,-0.0172 -1.16185,-0.16879 -1.67525,-0.44205 v 0.04507 c 0,1.71169 1.27483,3.14005 2.96572,3.46537 -0.54458,0.14093 -1.11556,0.1616 -1.66973,0.06045 0.47079,1.40418 1.83693,2.4256797 3.45445,2.4553797 -1.2654,0.9463 -2.85969,1.5123 -4.59267,1.5123 -0.294677,-3e-4 -0.58909,-0.0169 -0.881783,-0.0495 1.636383,1.0024 3.580603,1.5882 5.668803,1.5882 6.80195,0 10.52085,-5.3859197 10.52085,-10.0565397 0,-0.15277 0,-0.30554 -0.0114,-0.45721 0.7236,-0.5004 1.3485,-1.11963 1.8456,-1.82886 z"
     fill="white"
     id="path2"
     style="opacity:1;fill:#ffffff" />
</svg>
